<svg xmlns="http://www.w3.org/2000/svg" fill="none" viewBox="0 0 43 43" height="43" width="43">
<path stroke-linejoin="round" stroke-linecap="round" stroke-width="1.5" stroke="black" d="M16.6121 29.2955C16.6121 31.7556 14.6668 33.75 12.2672 33.75C9.86766 33.75 7.92241 31.7556 7.92241 29.2955M16.6121 29.2955C16.6121 26.8353 14.6668 24.8409 12.2672 24.8409C9.86766 24.8409 7.92241 26.8353 7.92241 29.2955M16.6121 29.2955H26.3879M7.92241 29.2955H5.75V10.25C5.75 9.69771 6.19772 9.25 6.75 9.25H26.3879V29.2955M36.1638 29.2955C36.1638 31.7556 34.2185 33.75 31.819 33.75C29.4194 33.75 27.4741 31.7556 27.4741 29.2955M36.1638 29.2955C36.1638 26.8353 34.2185 24.8409 31.819 24.8409C29.4194 24.8409 27.4741 26.8353 27.4741 29.2955M36.1638 29.2955H37.25V23.2349C37.25 21.4086 36.5363 19.6546 35.2611 18.3472L32.702 15.7235C32.1374 15.1446 31.363 14.8182 30.5544 14.8182H26.3879V29.2955M27.4741 29.2955H26.3879"></path>
</svg>
