<svg xmlns="http://www.w3.org/2000/svg" fill="none" viewBox="0 0 43 43" height="43" width="43">
<path stroke-linejoin="round" stroke-linecap="round" stroke-width="1.5" stroke="black" d="M21.5 10.125V14.5M21.5 10.125C21.5 7.70875 23.4588 5.75 25.875 5.75C28.2912 5.75 30.25 7.70875 30.25 10.125C30.25 12.5412 28.2912 14.5 25.875 14.5M21.5 10.125C21.5 7.70875 19.5412 5.75 17.125 5.75C14.7088 5.75 12.75 7.70875 12.75 10.125C12.75 12.5412 14.7088 14.5 17.125 14.5M21.5 14.5H25.875M21.5 14.5H17.125M21.5 14.5V25M25.875 14.5H31.6503C33.6105 14.5 34.5893 14.5 35.3379 14.8815C35.9965 15.217 36.5333 15.7521 36.8689 16.4106C37.25 17.1586 37.25 18.1382 37.25 20.0946V25M17.125 14.5H11.3503C9.39016 14.5 8.40934 14.5 7.66064 14.8815C7.00208 15.217 6.46703 15.7521 6.13148 16.4106C5.75 17.1593 5.75 18.1402 5.75 20.1003V25M5.75 25V29.9003C5.75 31.8605 5.75 32.8401 6.13148 33.5888C6.46703 34.2474 7.00208 34.7833 7.66064 35.1189C8.4086 35.5 9.38824 35.5 11.3446 35.5H21.5M5.75 25H21.5M21.5 25V35.5M21.5 25H37.25M21.5 35.5H31.6554C33.6118 35.5 34.59 35.5 35.3379 35.1189C35.9965 34.7833 36.5333 34.2474 36.8689 33.5888C37.25 32.8408 37.25 31.8626 37.25 29.9063V25"></path>
</svg>
