<svg xmlns="http://www.w3.org/2000/svg" fill="none" viewBox="0 0 43 43" height="43" width="43">
<path stroke-linejoin="round" stroke-linecap="round" stroke-width="1.5" stroke="black" d="M16.6533 16.25H13.1003C11.1402 16.25 10.1593 16.25 9.41064 16.6315C8.75208 16.967 8.21703 17.5021 7.88148 18.1606C7.5 18.9093 7.5 19.8902 7.5 21.8503V31.6503C7.5 33.6105 7.5 34.5901 7.88148 35.3388C8.21703 35.9974 8.75208 36.5333 9.41064 36.8689C10.1586 37.25 11.1383 37.25 13.0946 37.25H29.9054C31.8618 37.25 32.84 37.25 33.5879 36.8689C34.2465 36.5333 34.7833 35.9974 35.1189 35.3388C35.5 34.5908 35.5 33.6126 35.5 31.6563V21.8446C35.5 19.8882 35.5 18.9086 35.1189 18.1606C34.7833 17.5021 34.2465 16.967 33.5879 16.6315C32.8393 16.25 31.8605 16.25 29.9003 16.25H26.3456M16.6533 16.25H26.3456M16.6533 16.25C16.4303 16.25 16.25 16.0692 16.25 15.8462V11C16.25 8.10051 18.6005 5.75 21.5 5.75C24.3995 5.75 26.75 8.10051 26.75 11V15.8462C26.75 16.0692 26.5687 16.25 26.3456 16.25"></path>
</svg>
