<svg width="198" height="29" viewBox="0 0 198 29" fill="none" xmlns="http://www.w3.org/2000/svg">
<g style="mix-blend-mode:luminosity">
<mask id="mask0_2056_3468" style="mask-type:luminance" maskUnits="userSpaceOnUse" x="153" y="1" width="45" height="27">
<path d="M197.047 1H153V27.58H197.047V1Z" fill="white"></path>
</mask>
<g mask="url(#mask0_2056_3468)">
<path d="M194.457 1.37939C195.565 1.37939 196.477 2.29429 196.477 3.41609V25.1638C196.477 26.2848 195.565 27.1998 194.457 27.1998H156.064C154.956 27.1998 154.044 26.2848 154.044 25.1638V3.41609C154.044 2.29429 154.956 1.37939 156.064 1.37939H194.457Z" fill="#006FCF" stroke="#E9E9E9"></path>
<path d="M163.228 12.1971L164.157 14.4637H162.307L163.228 12.1971ZM182.515 12.2913H178.943V13.2905H182.457V14.7875H178.95V15.9014H182.522V16.7943L185.014 14.0819L182.522 11.2547L182.515 12.2913ZM165.642 9.46423H170.435L171.499 11.802L172.486 9.45703H184.927L186.221 10.8946L187.559 9.45703H193.273L189.051 14.1108L193.23 18.7357H187.43L186.137 17.2981L184.787 18.7357H164.499L163.906 17.2981H162.55L161.956 18.7357H157.264L161.206 9.45703H165.322L165.642 9.46423ZM176.036 10.7666H173.349L171.55 15.0388L169.6 10.7666H166.934V16.578L164.463 10.7666H162.071L159.213 17.4261H161.079L161.672 15.9884H164.787L165.379 17.4261H168.643V12.6719L170.743 17.4333H172.171L174.259 12.6864V17.4345H176.008L176.037 10.7654L176.036 10.7666ZM187.242 14.1108L190.278 10.7666H188.092L186.172 12.8519L184.314 10.7666H177.243V17.4333H184.214L186.15 15.3335L188.007 17.4333H190.257L187.242 14.1108Z" fill="white"></path>
</g>
<mask id="mask1_2056_3468" style="mask-type:luminance" maskUnits="userSpaceOnUse" x="50" y="1" width="45" height="27">
<path d="M94.0468 1H50V27.58H94.0468V1Z" fill="white"></path>
</mask>
<g mask="url(#mask1_2056_3468)">
<path d="M82.4694 17.0653V16.8076H82.4023L82.3247 16.9845L82.2475 16.8076H82.1802V17.0653H82.2279V16.8712L82.3004 17.0386H82.3498L82.4223 16.8707V17.0653H82.4694ZM82.0437 17.0653V16.8517H82.1296V16.8083H81.9101V16.8517H81.996V17.0653H82.0437Z" fill="#F79410"></path>
<path d="M90.5343 1.75928H53.4172C51.9493 1.75928 50.7592 2.94928 50.7592 4.41728V24.9218C50.7592 26.3898 51.9493 27.5798 53.4172 27.5798H90.5343C92.0023 27.5798 93.1923 26.3898 93.1923 24.9218V4.41728C93.1923 2.94928 92.0023 1.75928 90.5343 1.75928Z" fill="white" stroke="#E9E9E9"></path>
<path d="M75.4818 20.6395H68.8374V8.69824H75.4819L75.4818 20.6395Z" fill="#FF5F00"></path>
<path d="M69.2583 14.6695C69.2583 12.2472 70.3925 10.0896 72.1586 8.69901C70.8217 7.64481 69.1683 7.0727 67.4658 7.0752C63.2721 7.0752 59.8725 10.4753 59.8725 14.6695C59.8725 18.8637 63.2721 22.2638 67.4658 22.2638C69.1683 22.2668 70.8218 21.6938 72.1587 20.6398C70.3927 19.2498 69.2583 17.0919 69.2583 14.6695Z" fill="#EB001B"></path>
<path d="M84.4454 14.6695C84.4454 18.8637 81.046 22.2638 76.8522 22.2638C75.1495 22.2668 73.4958 21.6938 72.1586 20.6398C73.9253 19.2498 75.0594 17.0919 75.0594 14.6695C75.0594 12.2471 73.9253 10.0896 72.1586 8.69901C73.4957 7.6449 75.1494 7.0728 76.852 7.0752C81.0458 7.0752 84.4454 10.4753 84.4454 14.6695Z" fill="#F79E1B"></path>
</g>
<mask id="mask2_2056_3468" style="mask-type:luminance" maskUnits="userSpaceOnUse" x="0" y="1" width="44" height="27">
<path d="M43.2874 1H0V27.58H43.2874V1Z" fill="white"></path>
</mask>
<g mask="url(#mask2_2056_3468)">
<path d="M40.1549 1.37939H3.03788C1.56991 1.37939 0.379883 2.56949 0.379883 4.03739V24.5418C0.379883 26.0098 1.56991 27.1998 3.03788 27.1998H40.1549C41.6229 27.1998 42.8129 26.0098 42.8129 24.5418V4.03739C42.8129 2.56949 41.6229 1.37939 40.1549 1.37939Z" fill="white" stroke="#E9E9E9"></path>
<path d="M26.1216 8.97363C23.9984 8.97363 22.101 10.1057 22.101 12.1975C22.101 14.5964 25.4661 14.762 25.4661 15.9671C25.4661 16.4746 24.9008 16.9288 23.9354 16.9288C22.5654 16.9288 21.5414 16.2941 21.5414 16.2941L21.1032 18.4049C21.1032 18.4049 22.2828 18.9411 23.849 18.9411C26.1703 18.9411 27.9969 17.7533 27.9969 15.6258C27.9969 13.091 24.6179 12.9302 24.6179 11.8116C24.6179 11.4142 25.0818 10.9786 26.0445 10.9786C27.1306 10.9786 28.0168 11.4402 28.0168 11.4402L28.4456 9.40154C28.4456 9.40154 27.4814 8.97363 26.1216 8.97363ZM6.69644 9.12743L6.64502 9.43523C6.64502 9.43523 7.53826 9.60344 8.34272 9.93884C9.37858 10.3235 9.4524 10.5475 9.62684 11.2431L11.5278 18.7824H14.0762L18.0022 9.12743H15.4597L12.937 15.6919L11.9076 10.1275C11.8132 9.49073 11.335 9.12743 10.7497 9.12743H6.69644ZM19.0245 9.12743L17.03 18.7823H19.4545L21.442 9.12743H19.0245ZM32.5468 9.12743C31.9621 9.12743 31.6524 9.44943 31.4251 10.0122L27.8731 18.7823H30.4156L30.9075 17.3206H34.005L34.3041 18.7823H36.5475L34.5904 9.12743H32.5468ZM32.8775 11.7359L33.6311 15.3589H31.612L32.8775 11.7359Z" fill="#1A1F71"></path>
</g>
<path d="M142.572 1H104.525C102.868 1 101.525 2.34315 101.525 4V24.58C101.525 26.2369 102.868 27.58 104.525 27.58H142.572C144.229 27.58 145.572 26.2369 145.572 24.58V4C145.572 2.34315 144.229 1 142.572 1Z" fill="white"></path>
<path d="M142.572 1H104.525C102.868 1 101.525 2.34315 101.525 4V24.58C101.525 26.2369 102.868 27.58 104.525 27.58H142.572C144.229 27.58 145.572 26.2369 145.572 24.58V4C145.572 2.34315 144.229 1 142.572 1Z" stroke="#E9E9E9"></path>
<path d="M125.165 22.2212C129.47 22.2412 133.398 18.7246 133.398 14.4469C133.398 9.76954 129.468 6.53353 125.165 6.53613H121.46C117.105 6.53353 113.52 9.76954 113.52 14.4469C113.52 18.7272 117.105 22.2412 121.46 22.2212H125.165Z" fill="#0079BE"></path>
<path d="M121.478 7.18311C117.498 7.18311 114.273 10.3985 114.27 14.3642C114.27 18.3299 117.496 21.543 121.478 21.543C125.46 21.543 128.686 18.3273 128.686 14.3642C128.686 10.3985 125.46 7.18571 121.478 7.18311ZM116.911 14.3642C116.913 12.4252 118.13 10.7724 119.844 10.1174V18.611C118.13 17.956 116.913 16.3032 116.911 14.3642ZM123.114 18.6135V10.1174C124.828 10.7724 126.045 12.4252 126.047 14.3642C126.045 16.3032 124.828 17.956 123.114 18.6135Z" fill="white"></path>
</g>
</svg>
